<svg width="11" height="12" viewBox="0 0 11 12" fill="none" xmlns="http://www.w3.org/2000/svg">
<path d="M8.93742 0.705833H8.24985V0.352977C8.24985 0.157996 8.09597 0 7.90619 0C7.71628 0 7.5624 0.157996 7.5624 0.352977V0.705833H3.43748V0.352977C3.43748 0.157996 3.2836 0 3.09369 0C2.90391 0 2.75003 0.157996 2.75003 0.352977V0.705833H2.06246C1.51556 0.705833 0.990955 0.928939 0.604125 1.32611C0.217295 1.72329 0 2.26192 0 2.82345V9.88238C0 10.4439 0.217295 10.9825 0.604125 11.3797C0.990955 11.7769 1.51556 12 2.06246 12H8.93754C9.48444 12 10.009 11.7769 10.3959 11.3797C10.7827 10.9825 11 10.4439 11 9.88238V2.82345C11 2.26192 10.7827 1.72329 10.3959 1.32611C10.009 0.928939 9.48433 0.705833 8.93742 0.705833ZM10.3124 9.88208L10.3123 9.8822C10.312 10.2564 10.167 10.6153 9.90914 10.8799C9.65144 11.1446 9.30192 11.2935 8.93742 11.2939H2.06235C1.69785 11.2935 1.34832 11.1446 1.09063 10.8799C0.832825 10.6153 0.687805 10.2564 0.687451 9.8822V4.23511H10.3121L10.3124 9.88208ZM3.53813 8.36701C3.40784 8.22852 3.40968 8.00838 3.54227 7.87225C3.67486 7.73611 3.88926 7.73422 4.02415 7.86799L5.12754 9.00089L7.6375 5.77939C7.69447 5.70624 7.77745 5.65932 7.86814 5.64904C7.95872 5.63864 8.04964 5.66571 8.12088 5.7242C8.26924 5.84603 8.29329 6.06819 8.17463 6.22051L5.42472 9.74998C5.36349 9.8282 5.2728 9.87606 5.1752 9.88162L5.15609 9.88233C5.06494 9.88244 4.97747 9.84522 4.91313 9.77893L3.53813 8.36701Z" fill="white"/>
</svg>
