<svg width="12" height="13" viewBox="0 0 12 13" fill="none" xmlns="http://www.w3.org/2000/svg">
<path d="M1.45586 0.400635C1.05758 0.400635 0.736938 0.741528 0.736938 1.16497V9.66375C0.736938 10.0872 1.05758 10.4281 1.45586 10.4281H6.91321C6.79009 10.0454 6.74124 9.64022 6.76962 9.23693H1.62362C1.59878 9.23729 1.57412 9.2324 1.55107 9.22254C1.52802 9.21268 1.50704 9.19805 1.48935 9.1795C1.47166 9.16095 1.45762 9.13885 1.44803 9.11448C1.43844 9.09011 1.43351 9.06396 1.43351 9.03754C1.43351 9.01113 1.43844 8.98497 1.44803 8.9606C1.45762 8.93623 1.47166 8.91413 1.48935 8.89558C1.50704 8.87703 1.52802 8.8624 1.55107 8.85254C1.57412 8.84268 1.59878 8.83779 1.62362 8.83815H6.82629C6.92843 8.32721 7.15466 7.85362 7.48245 7.46452H1.62366C1.59881 7.46488 1.57415 7.45998 1.5511 7.45012C1.52805 7.44027 1.50707 7.42564 1.48938 7.40708C1.4717 7.38853 1.45765 7.36643 1.44807 7.34206C1.43848 7.31769 1.43354 7.29154 1.43354 7.26512C1.43354 7.23871 1.43848 7.21256 1.44807 7.18819C1.45765 7.16382 1.4717 7.14172 1.48938 7.12316C1.50707 7.10461 1.52805 7.08998 1.5511 7.08012C1.57415 7.07026 1.59881 7.06537 1.62366 7.06573H7.8942C8.2162 6.81102 8.58573 6.63251 8.97798 6.54219C9.37023 6.45187 9.77612 6.45183 10.1684 6.54206V1.16497C10.1684 0.741528 9.84775 0.400635 9.44947 0.400635H1.45586ZM3.06143 1.62685H7.8438C7.86864 1.62649 7.8933 1.63138 7.91635 1.64124C7.9394 1.6511 7.96038 1.66573 7.97807 1.68428C7.99576 1.70283 8.0098 1.72493 8.01939 1.7493C8.02897 1.77367 8.03391 1.79982 8.03391 1.82624C8.03391 1.85265 8.02897 1.8788 8.01939 1.90317C8.0098 1.92754 7.99576 1.94965 7.97807 1.9682C7.96038 1.98675 7.9394 2.00138 7.91635 2.01124C7.8933 2.0211 7.86864 2.02599 7.8438 2.02563H3.06143C3.03659 2.02599 3.01192 2.0211 2.98887 2.01124C2.96582 2.00138 2.94485 1.98675 2.92716 1.9682C2.90947 1.94965 2.89543 1.92754 2.88584 1.90317C2.87625 1.8788 2.87132 1.85265 2.87132 1.82624C2.87132 1.79982 2.87625 1.77367 2.88584 1.7493C2.89543 1.72493 2.90947 1.70283 2.92716 1.68428C2.94485 1.66573 2.96582 1.6511 2.98887 1.64124C3.01192 1.63138 3.03659 1.62649 3.06143 1.62685ZM1.62357 3.52111H9.28166C9.30651 3.52075 9.33117 3.52564 9.35422 3.5355C9.37727 3.54536 9.39825 3.55999 9.41594 3.57854C9.43362 3.59709 9.44767 3.61919 9.45725 3.64356C9.46684 3.66793 9.47178 3.69408 9.47178 3.7205C9.47178 3.74691 9.46684 3.77307 9.45725 3.79744C9.44767 3.82181 9.43362 3.84391 9.41594 3.86246C9.39825 3.88101 9.37727 3.89564 9.35422 3.9055C9.33117 3.91536 9.30651 3.92025 9.28166 3.91989H1.62357C1.59872 3.92025 1.57406 3.91536 1.55101 3.9055C1.52796 3.89564 1.50698 3.88101 1.48929 3.86246C1.4716 3.84391 1.45756 3.82181 1.44797 3.79744C1.43839 3.77307 1.43345 3.74691 1.43345 3.7205C1.43345 3.69408 1.43839 3.66793 1.44797 3.64356C1.45756 3.61919 1.4716 3.59709 1.48929 3.57854C1.50698 3.55999 1.52796 3.54536 1.55101 3.5355C1.57406 3.52564 1.59872 3.52075 1.62357 3.52111ZM1.62357 5.29351H9.28166C9.30651 5.29315 9.33117 5.29804 9.35422 5.3079C9.37727 5.31776 9.39825 5.33239 9.41594 5.35094C9.43362 5.36949 9.44767 5.3916 9.45725 5.41597C9.46684 5.44034 9.47178 5.46649 9.47178 5.4929C9.47178 5.51932 9.46684 5.54547 9.45725 5.56984C9.44767 5.59421 9.43362 5.61631 9.41594 5.63486C9.39825 5.65342 9.37727 5.66805 9.35422 5.6779C9.33117 5.68776 9.30651 5.69266 9.28166 5.6923H1.62357C1.59872 5.69266 1.57406 5.68776 1.55101 5.6779C1.52796 5.66805 1.50698 5.65342 1.48929 5.63486C1.4716 5.61631 1.45756 5.59421 1.44797 5.56984C1.43839 5.54547 1.43345 5.51932 1.43345 5.4929C1.43345 5.46649 1.43839 5.44034 1.44797 5.41597C1.45756 5.3916 1.4716 5.36949 1.48929 5.35094C1.50698 5.33239 1.52796 5.31776 1.55101 5.3079C1.57406 5.29804 1.59872 5.29315 1.62357 5.29351ZM9.52073 6.9009C9.1985 6.90853 8.88098 6.98482 8.58698 7.12525C8.29297 7.26568 8.02846 7.4674 7.8091 7.71846C7.59374 7.96491 7.42615 8.25405 7.3159 8.56935C7.20564 8.88466 7.15488 9.21997 7.16651 9.55614C7.17814 9.8923 7.25194 10.2227 7.38369 10.5286C7.51544 10.8344 7.70256 11.1097 7.93437 11.3386C8.16619 11.5676 8.43816 11.7457 8.73474 11.8629C9.03133 11.9801 9.34672 12.0341 9.66292 12.0217C9.97911 12.0093 10.2899 11.9308 10.5776 11.7907C10.8652 11.6506 11.1241 11.4517 11.3395 11.2052C11.5548 10.9587 11.7224 10.6696 11.8327 10.3543C11.9429 10.039 11.9937 9.70368 11.9821 9.36752C11.9704 9.03135 11.8966 8.70092 11.7649 8.39507C11.6331 8.08923 11.446 7.81397 11.2142 7.58501C10.7549 7.13144 10.1474 6.88604 9.52073 6.9009ZM9.57225 7.23192C9.59734 7.23153 9.62223 7.23651 9.64548 7.24653C9.66872 7.25656 9.68984 7.27145 9.70757 7.2903C9.72531 7.30916 9.73931 7.33161 9.74874 7.35632C9.75817 7.38103 9.76285 7.4075 9.76249 7.43417V9.13624C9.81746 9.1701 9.86311 9.21871 9.89487 9.27721C9.92662 9.33571 9.94337 9.40205 9.94344 9.46959C9.94345 9.52026 9.93407 9.57043 9.91583 9.61724C9.8976 9.66406 9.87087 9.70659 9.83717 9.74242C9.80347 9.77824 9.76347 9.80666 9.71944 9.82605C9.67541 9.84543 9.62821 9.8554 9.58056 9.85539C9.55744 9.85531 9.53438 9.85288 9.51169 9.84813L9.03623 10.4364C9.0203 10.4567 9.00074 10.4734 8.97868 10.4856C8.95662 10.4978 8.93251 10.5052 8.90774 10.5074C8.88297 10.5096 8.85803 10.5065 8.83439 10.4983C8.81074 10.4902 8.78886 10.4771 8.77 10.4599C8.75115 10.4427 8.73571 10.4216 8.72457 10.398C8.71343 10.3744 8.70682 10.3487 8.70512 10.3223C8.70342 10.2959 8.70666 10.2695 8.71467 10.2444C8.72267 10.2194 8.73527 10.1963 8.75174 10.1765L9.2333 9.58046C9.22304 9.54451 9.21778 9.50716 9.21768 9.4696C9.21771 9.40438 9.23329 9.34024 9.26297 9.28317C9.29265 9.2261 9.33546 9.17796 9.38739 9.14325V7.43417C9.38704 7.40799 9.39154 7.38199 9.40064 7.35765C9.40974 7.33332 9.42326 7.31112 9.44042 7.29234C9.45759 7.27356 9.47806 7.25856 9.50068 7.24819C9.5233 7.23783 9.54763 7.23229 9.57225 7.23192Z" fill="white"/>
</svg>
