<svg width="11" height="13" viewBox="0 0 11 13" fill="none" xmlns="http://www.w3.org/2000/svg">
<path d="M5.01147 2.25565V0.985596H5.85537V2.26859" fill="black"/>
<path d="M2.5448 2.25565V0.985596H3.3887V2.25565" fill="black"/>
<path d="M9.97753 2.25562H0.889241C0.638266 2.25562 0.434814 2.41844 0.434814 2.6193V12.3633C0.434814 12.5641 0.638266 12.727 0.889241 12.727H9.97749C10.2285 12.727 10.4319 12.5641 10.4319 12.3633V2.61927C10.4319 2.41841 10.2285 2.25562 9.97753 2.25562ZM7.47824 2.25562H8.32214V3.55156H7.47824V2.25562ZM5.01143 2.25562L5.85533 2.26856V3.55156H5.01143V2.25562ZM2.54463 2.25562H3.38853V3.55156H2.54463V2.25562ZM8.9534 11.4906H1.92791V10.8153H8.9534V11.4906ZM8.9534 9.89308H1.92791V9.2177H8.9534V9.89308ZM8.9534 8.29552H1.92791V7.62014H8.9534V8.29552ZM8.9534 6.69797H1.96035V6.02259H8.9534V6.69797ZM8.9534 5.10041H1.96035V4.42503H8.9534V5.10041Z" fill="black"/>
<path d="M7.47827 2.25565V0.985596H8.32217V2.25565" fill="black"/>
</svg>
