<svg width="13" height="10" viewBox="0 0 13 10" fill="none" xmlns="http://www.w3.org/2000/svg">
<path d="M6.40609 2.94582H6.69086C6.69086 2.27114 6.97652 1.67832 7.43196 1.23788C7.90453 0.794474 8.5248 0.51549 9.21777 0.51549C9.92612 0.51549 10.5447 0.795359 11.0008 1.23518C11.46 1.69151 11.7447 2.28598 11.7447 2.94582C11.7447 3.62119 11.4584 4.21454 11.0022 4.65512L6.40609 9.09336L1.81141 4.65651C1.35224 4.20018 1.06749 3.60568 1.06749 2.94582C1.06749 2.27114 1.35314 1.67832 1.80858 1.23788C2.28116 0.794474 2.90143 0.51549 3.5944 0.51549C4.30274 0.51549 4.92129 0.795356 5.37742 1.23517C5.83658 1.6915 6.12131 2.28598 6.12131 2.94582H6.40609Z" fill="white" stroke="white" stroke-width="0.569553"/>
</svg>
