<svg width="12" height="12" viewBox="0 0 12 12" fill="none" xmlns="http://www.w3.org/2000/svg">
<path d="M5.81063 3.15797C5.60962 3.15797 5.41685 3.23898 5.27472 3.38317C5.13258 3.52737 5.05273 3.72293 5.05273 3.92685V5.84905C5.05273 6.30787 5.2324 6.74789 5.55219 7.07233C5.87199 7.39676 6.30573 7.57903 6.758 7.57903H8.08431C8.28532 7.57903 8.47809 7.49802 8.62023 7.35383C8.76236 7.20963 8.84221 7.01407 8.84221 6.81015C8.84221 6.60623 8.76236 6.41066 8.62023 6.26647C8.47809 6.12228 8.28532 6.04127 8.08431 6.04127H6.758C6.70775 6.04127 6.65955 6.02102 6.62402 5.98497C6.58849 5.94892 6.56852 5.90003 6.56852 5.84905V3.92685C6.56852 3.72293 6.48867 3.52737 6.34654 3.38317C6.20441 3.23898 6.01164 3.15797 5.81063 3.15797Z" fill="white"/>
<path d="M0.749741 11.8645H2.43666C2.98348 11.8645 3.5079 11.6462 3.89456 11.2577C4.28122 10.8692 4.49844 10.3423 4.49844 9.79281V8.09779C4.49844 7.89799 4.41945 7.70638 4.27885 7.5651C4.13825 7.42382 3.94755 7.34445 3.7487 7.34445C3.54986 7.34445 3.35916 7.42382 3.21856 7.5651C3.07795 7.70638 2.99896 7.89799 2.99896 8.09779V9.39542C2.23613 8.70979 1.72879 7.78329 1.5607 6.76885C1.3926 5.75442 1.57381 4.71272 2.07439 3.81573C2.57498 2.91873 3.36501 2.22007 4.31408 1.8351C5.26314 1.45012 6.31448 1.40184 7.29453 1.69823C8.27458 1.99462 9.12475 2.61795 9.70467 3.46533C10.2846 4.31271 10.5596 5.33346 10.4843 6.35907C10.409 7.38468 9.98788 8.35382 9.29047 9.1065C8.59306 9.85919 7.66106 10.3504 6.64833 10.4991C6.46971 10.523 6.30567 10.6109 6.18623 10.7464C6.06679 10.882 5.99994 11.0563 5.99793 11.2373V11.2581C5.99954 11.3649 6.02376 11.4702 6.06899 11.567C6.11423 11.6637 6.17943 11.7497 6.26027 11.8192C6.34112 11.8886 6.43575 11.94 6.53788 11.9699C6.64001 11.9998 6.7473 12.0075 6.85263 11.9926C8.19421 11.7995 9.43116 11.1555 10.3619 10.1656C11.2926 9.17575 11.8623 7.89833 11.9781 6.54151C12.0938 5.1847 11.7489 3.82849 10.9994 2.69388C10.2499 1.55928 9.14008 0.713164 7.85079 0.293425C6.5615 -0.126315 5.16873 -0.0949363 3.89946 0.382448C2.63018 0.859832 1.55922 1.75508 0.861106 2.9223C0.162987 4.08952 -0.121138 5.4599 0.0550313 6.81014C0.231201 8.16037 0.857279 9.41086 1.83124 10.3578H0.749741C0.550897 10.3578 0.360198 10.4372 0.219594 10.5785C0.0789905 10.7197 0 10.9114 0 11.1112C0 11.311 0.0789905 11.5026 0.219594 11.6439C0.360198 11.7851 0.550897 11.8645 0.749741 11.8645Z" fill="white"/>
</svg>
